# xmcd
#
# Track frame offsets: 
#        300
#        17007
#        30427
#        45138
#        66378
#        80862
#        96544
#        109923
#        124436
#        140831
#        158086
#
# Disc length: 2252 seconds
#
# Revision: 3
# Processed by: cddbd v1.5.2PL0 Copyright (c) Steve Scherf et al.
# Submitted via: ExactAudioCopy v1.0b1
#
DISCID=9b08c80b
DTITLE=Angela Strehli - Blonde and Blue
DYEAR=1993
DGENRE=General Blues
TTITLE0=Two Bit Texas Town
TTITLE1=Never Lke This Before
TTITLE2=Can't Stop These Teardrops
TTITLE3=You Don't Love Me
TTITLE4=I'm Just Your Fool
TTITLE5=Say It's Not So
TTITLE6=Um, Um, Um, Um, Um, Um (Duet with Don Covay)
TTITLE7=Go On
TTITLE8=Gotta Find Me A Lover (24 Hour A Day)
TTITLE9=The Sun Is Shining
TTITLE10=Going To That City
EXTD=
EXTT0=
EXTT1=
EXTT2=
EXTT3=
EXTT4=
EXTT5=
EXTT6=
EXTT7=
EXTT8=
EXTT9=
EXTT10=
PLAYORDER=
